<svg width="27" height="26" viewBox="0 0 27 26" fill="none" xmlns="http://www.w3.org/2000/svg">
<path d="M26.4131 5.64167C25.9102 4.999 25.1276 4.60778 24.3173 4.60778H7.29935L6.76836 2.53987C6.46097 1.33837 5.39905 0.5 4.16966 0.5H1.31931C0.844287 0.5 0.453094 0.891208 0.453094 1.36622C0.453094 1.84124 0.844302 2.23244 1.31931 2.23244H4.16966C4.58874 2.23244 4.9521 2.51196 5.06397 2.93104L8.47316 16.5119C8.78055 17.7134 9.84246 18.5517 11.0719 18.5517H22.2216C23.4511 18.5517 24.5409 17.7134 24.8203 16.5119L26.9161 7.90509C27.1116 7.12265 26.9439 6.28448 26.413 5.64167H26.4131ZM25.2116 7.51392L23.1158 16.1207C23.0041 16.5398 22.6408 16.8193 22.2215 16.8193H11.0718C10.6527 16.8193 10.2894 16.5398 10.1775 16.1207L7.74641 6.36821H24.3173C24.5968 6.36821 24.8761 6.50797 25.0438 6.73155C25.2116 6.95512 25.2954 7.23464 25.2116 7.51398L25.2116 7.51392Z" fill="black"/>
<path d="M11.6586 19.6696C10.0657 19.6696 8.75253 20.983 8.75253 22.5757C8.75253 24.1686 10.0659 25.4818 11.6586 25.4818C13.2515 25.482 14.5649 24.1686 14.5649 22.5757C14.5649 20.983 13.2515 19.6696 11.6586 19.6696ZM11.6586 23.7215C11.016 23.7215 10.5129 23.2186 10.5129 22.5757C10.5129 21.933 11.0158 21.4299 11.6586 21.4299C12.3013 21.4299 12.8044 21.9328 12.8044 22.5757C12.8044 23.1905 12.2734 23.7215 11.6586 23.7215Z" fill="black"/>
<path d="M21.2714 19.6696C19.6785 19.6696 18.3653 20.983 18.3653 22.5757C18.3653 24.1686 19.6787 25.4818 21.2714 25.4818C22.8643 25.4818 24.1775 24.1684 24.1775 22.5757C24.1496 20.983 22.8643 19.6696 21.2714 19.6696ZM21.2714 23.7215C20.6287 23.7215 20.1257 23.2186 20.1257 22.5757C20.1257 21.933 20.6285 21.4299 21.2714 21.4299C21.9141 21.4299 22.4172 21.9328 22.4172 22.5757C22.4172 23.1905 21.8862 23.7215 21.2714 23.7215Z" fill="black"/>
</svg>
