<svg width="25" height="20" viewBox="0 0 25 20" fill="none" xmlns="http://www.w3.org/2000/svg">
<path d="M23.4374 0.624939H1.56258C0.699539 0.624939 0 1.32448 0 2.18752C0 3.05056 0.699539 3.7501 1.56258 3.7501H23.4374C24.3005 3.7501 25 3.05056 25 2.18752C25 1.32448 24.3005 0.624939 23.4374 0.624939Z" fill="black"/>
<path d="M23.4374 8.43747H1.56258C0.699539 8.43747 0 9.13701 0 10.0001C0 10.8631 0.699539 11.5626 1.56258 11.5626H23.4374C24.3005 11.5626 25 10.8631 25 10.0001C25 9.13701 24.3005 8.43747 23.4374 8.43747Z" fill="black"/>
<path d="M1.56258 16.2499H23.4374C24.3005 16.2499 25 16.9494 25 17.8125C25 18.6755 24.3005 19.3751 23.4374 19.3751H1.56258C0.699539 19.3751 0 18.6755 0 17.8125C0 16.9494 0.699539 16.2499 1.56258 16.2499Z" fill="black"/>
</svg>
