<svg width="26" height="26" viewBox="0 0 26 26" fill="none" xmlns="http://www.w3.org/2000/svg">
<path d="M25.0349 23.3167L19.5971 17.8792C19.5881 17.8702 19.5774 17.8641 19.5682 17.8557C20.9256 16.0444 21.7397 13.8026 21.7397 11.3651C21.7397 5.37536 16.884 0.519531 10.8941 0.519531C4.90438 0.519531 0.0485535 5.37523 0.0485535 11.3651C0.0482978 17.3546 4.90399 22.21 10.8934 22.21C13.5501 22.21 15.9808 21.2515 17.8666 19.6658L23.2763 25.0752C23.5189 25.3181 23.8372 25.4395 24.1555 25.4395C24.4738 25.4395 24.7921 25.3181 25.0349 25.0752C25.5202 24.5895 25.5202 23.8021 25.0344 23.3164L25.0349 23.3167ZM10.8942 19.7234C6.28516 19.7234 2.53556 15.9739 2.53556 11.3648C2.53556 6.75568 6.2851 3.00614 10.8942 3.00614C15.5033 3.00614 19.2528 6.75568 19.2528 11.3648C19.2528 15.9739 15.5033 19.7234 10.8942 19.7234Z" fill="black"/>
</svg>
