<svg width="26" height="26" viewBox="0 0 26 26" fill="none" xmlns="http://www.w3.org/2000/svg">
<path d="M21.5825 24.9541L13.1521 16.5264L4.72171 24.9541C4.27547 25.4021 3.66929 25.654 3.03696 25.654C2.40464 25.654 1.79829 25.4021 1.35203 24.9541C0.903997 24.5078 0.6521 23.9015 0.6521 23.2691C0.6521 22.6368 0.903997 22.0306 1.35203 21.5844L9.77967 13.154L1.35203 4.7236C0.903997 4.27736 0.6521 3.67118 0.6521 3.03885C0.6521 2.40653 0.903997 1.80018 1.35203 1.35392C1.79828 0.905889 2.40464 0.653992 3.03696 0.653992C3.66929 0.653992 4.27545 0.905889 4.72171 1.35392L13.1521 9.78156L21.5825 1.35392C22.0287 0.905889 22.6349 0.653992 23.2672 0.653992C23.8996 0.653992 24.5059 0.905889 24.9522 1.35392C25.4002 1.80017 25.6521 2.40653 25.6521 3.03885C25.6521 3.67118 25.4002 4.27734 24.9522 4.7236L16.5245 13.154L24.9522 21.5844C25.4002 22.0306 25.6521 22.6368 25.6521 23.2691C25.6521 23.9015 25.4002 24.5078 24.9522 24.9541C24.5059 25.4021 23.8996 25.654 23.2672 25.654C22.6349 25.654 22.0287 25.4021 21.5825 24.9541Z" fill="black"/>
</svg>
